<mxfile host="app.diagrams.net" agent="Mozilla/5.0 (Windows NT 10.0; Win64; x64) AppleWebKit/537.36 (KHTML, like Gecko) Chrome/134.0.0.0 Safari/537.36" version="26.1.1">
  <diagram name="Page-1" id="-gMyT_9EoYBVRVNhwvhB">
    <mxGraphModel dx="309580" dy="309995" grid="1" gridSize="1" guides="1" tooltips="1" connect="1" arrows="1" fold="1" page="1" pageScale="1" pageWidth="850" pageHeight="1100" math="0" shadow="0">
      <root>
        <mxCell id="0" />
        <mxCell id="1" parent="0" />
        <mxCell id="tmo_uA_r9gK2cHat2s6H-12" edge="1" parent="1" source="tmo_uA_r9gK2cHat2s6H-1" target="tmo_uA_r9gK2cHat2s6H-10" />
        <mxCell id="tmo_uA_r9gK2cHat2s6H-13" edge="1" parent="1" source="tmo_uA_r9gK2cHat2s6H-10" target="tmo_uA_r9gK2cHat2s6H-7" />
        <mxCell id="tmo_uA_r9gK2cHat2s6H-14" edge="1" parent="1" source="tmo_uA_r9gK2cHat2s6H-4" target="tmo_uA_r9gK2cHat2s6H-11" />
        <mxCell id="tmo_uA_r9gK2cHat2s6H-15" edge="1" parent="1" source="tmo_uA_r9gK2cHat2s6H-11" target="tmo_uA_r9gK2cHat2s6H-1" />
        <mxCell id="tmo_uA_r9gK2cHat2s6H-16" value="&lt;u&gt;NRP&lt;/u&gt;" style="rounded=0;whiteSpace=wrap;html=1;fillColor=#D6D6D6;" vertex="1" parent="1">
          <mxGeometry x="-4130" y="-5430" width="50" height="30" as="geometry" />
        </mxCell>
        <mxCell id="tmo_uA_r9gK2cHat2s6H-19" value="Nama" style="rounded=0;whiteSpace=wrap;html=1;fillColor=#D6D6D6;" vertex="1" parent="1">
          <mxGeometry x="-4080" y="-5430" width="70" height="30" as="geometry" />
        </mxCell>
        <mxCell id="tmo_uA_r9gK2cHat2s6H-20" value="Email" style="rounded=0;whiteSpace=wrap;html=1;fillColor=#D6D6D6;" vertex="1" parent="1">
          <mxGeometry x="-4010" y="-5430" width="70" height="30" as="geometry" />
        </mxCell>
        <mxCell id="tmo_uA_r9gK2cHat2s6H-21" value="MAHASISWA" style="text;html=1;align=center;verticalAlign=middle;resizable=0;points=[];autosize=1;strokeColor=none;fillColor=none;" vertex="1" parent="1">
          <mxGeometry x="-4140" y="-5460" width="100" height="30" as="geometry" />
        </mxCell>
        <mxCell id="tmo_uA_r9gK2cHat2s6H-22" value="&lt;u&gt;ID_Dosen&lt;/u&gt;" style="rounded=0;whiteSpace=wrap;html=1;fillColor=#D6D6D6;" vertex="1" parent="1">
          <mxGeometry x="-4130" y="-4950" width="70" height="30" as="geometry" />
        </mxCell>
        <mxCell id="tmo_uA_r9gK2cHat2s6H-23" value="Nama" style="rounded=0;whiteSpace=wrap;html=1;fillColor=#D6D6D6;" vertex="1" parent="1">
          <mxGeometry x="-4060" y="-4950" width="80" height="30" as="geometry" />
        </mxCell>
        <mxCell id="tmo_uA_r9gK2cHat2s6H-24" value="Email" style="rounded=0;whiteSpace=wrap;html=1;fillColor=#D6D6D6;" vertex="1" parent="1">
          <mxGeometry x="-3980" y="-4950" width="90" height="30" as="geometry" />
        </mxCell>
        <mxCell id="tmo_uA_r9gK2cHat2s6H-25" value="DOSEN WALI" style="text;html=1;align=center;verticalAlign=middle;resizable=0;points=[];autosize=1;strokeColor=none;fillColor=none;" vertex="1" parent="1">
          <mxGeometry x="-4140" y="-4980" width="100" height="30" as="geometry" />
        </mxCell>
        <mxCell id="tmo_uA_r9gK2cHat2s6H-52" style="edgeStyle=orthogonalEdgeStyle;rounded=0;orthogonalLoop=1;jettySize=auto;html=1;entryX=0;entryY=1;entryDx=0;entryDy=0;" edge="1" parent="1" source="tmo_uA_r9gK2cHat2s6H-27" target="tmo_uA_r9gK2cHat2s6H-16">
          <mxGeometry relative="1" as="geometry">
            <Array as="points">
              <mxPoint x="-4105" y="-5210" />
              <mxPoint x="-4170" y="-5210" />
              <mxPoint x="-4170" y="-5400" />
            </Array>
          </mxGeometry>
        </mxCell>
        <mxCell id="tmo_uA_r9gK2cHat2s6H-27" value="NRP" style="rounded=0;whiteSpace=wrap;html=1;fillColor=#D6D6D6;" vertex="1" parent="1">
          <mxGeometry x="-4130" y="-5250" width="50" height="30" as="geometry" />
        </mxCell>
        <mxCell id="tmo_uA_r9gK2cHat2s6H-28" value="&lt;u&gt;ID_FRS&lt;/u&gt;" style="rounded=0;whiteSpace=wrap;html=1;shadow=1;fillColor=#D6D6D6;" vertex="1" parent="1">
          <mxGeometry x="-4080" y="-5250" width="80" height="30" as="geometry" />
        </mxCell>
        <mxCell id="tmo_uA_r9gK2cHat2s6H-30" value="FRS" style="text;html=1;align=center;verticalAlign=middle;resizable=0;points=[];autosize=1;strokeColor=none;fillColor=none;" vertex="1" parent="1">
          <mxGeometry x="-4140" y="-5280" width="50" height="30" as="geometry" />
        </mxCell>
        <mxCell id="tmo_uA_r9gK2cHat2s6H-47" style="edgeStyle=orthogonalEdgeStyle;rounded=0;orthogonalLoop=1;jettySize=auto;html=1;exitX=0.5;exitY=1;exitDx=0;exitDy=0;entryX=0.5;entryY=1;entryDx=0;entryDy=0;" edge="1" parent="1" source="tmo_uA_r9gK2cHat2s6H-31" target="tmo_uA_r9gK2cHat2s6H-16">
          <mxGeometry relative="1" as="geometry">
            <Array as="points">
              <mxPoint x="-4105" y="-5300" />
              <mxPoint x="-4150" y="-5300" />
              <mxPoint x="-4150" y="-5380" />
              <mxPoint x="-4105" y="-5380" />
            </Array>
          </mxGeometry>
        </mxCell>
        <mxCell id="tmo_uA_r9gK2cHat2s6H-31" value="NRP" style="rounded=0;whiteSpace=wrap;html=1;fillColor=#D6D6D6;" vertex="1" parent="1">
          <mxGeometry x="-4130" y="-5340" width="50" height="30" as="geometry" />
        </mxCell>
        <mxCell id="tmo_uA_r9gK2cHat2s6H-32" value="status" style="rounded=0;whiteSpace=wrap;html=1;fillColor=#D6D6D6;" vertex="1" parent="1">
          <mxGeometry x="-4080" y="-5340" width="60" height="30" as="geometry" />
        </mxCell>
        <mxCell id="tmo_uA_r9gK2cHat2s6H-33" value="tanggal" style="rounded=0;whiteSpace=wrap;html=1;fillColor=#D6D6D6;" vertex="1" parent="1">
          <mxGeometry x="-4020" y="-5340" width="70" height="30" as="geometry" />
        </mxCell>
        <mxCell id="tmo_uA_r9gK2cHat2s6H-34" value="PEMBAYARAN" style="text;html=1;align=center;verticalAlign=middle;resizable=0;points=[];autosize=1;strokeColor=none;fillColor=none;" vertex="1" parent="1">
          <mxGeometry x="-4145" y="-5370" width="110" height="30" as="geometry" />
        </mxCell>
        <mxCell id="tmo_uA_r9gK2cHat2s6H-35" value="&lt;u&gt;ID_Matkul&lt;/u&gt;" style="rounded=0;whiteSpace=wrap;html=1;fillColor=#D6D6D6;" vertex="1" parent="1">
          <mxGeometry x="-4130" y="-5150" width="70" height="30" as="geometry" />
        </mxCell>
        <mxCell id="tmo_uA_r9gK2cHat2s6H-36" value="SKS" style="rounded=0;whiteSpace=wrap;html=1;fillColor=#D6D6D6;" vertex="1" parent="1">
          <mxGeometry x="-3970" y="-5150" width="40" height="30" as="geometry" />
        </mxCell>
        <mxCell id="tmo_uA_r9gK2cHat2s6H-37" value="Nama_matkul" style="rounded=0;whiteSpace=wrap;html=1;fillColor=#D6D6D6;" vertex="1" parent="1">
          <mxGeometry x="-4060" y="-5150" width="90" height="30" as="geometry" />
        </mxCell>
        <mxCell id="tmo_uA_r9gK2cHat2s6H-38" value="MATA KULIAH" style="text;html=1;align=center;verticalAlign=middle;resizable=0;points=[];autosize=1;strokeColor=none;fillColor=none;" vertex="1" parent="1">
          <mxGeometry x="-4140" y="-5180" width="100" height="30" as="geometry" />
        </mxCell>
        <mxCell id="tmo_uA_r9gK2cHat2s6H-39" value="&lt;u&gt;no_pembayaran&lt;/u&gt;" style="rounded=0;whiteSpace=wrap;html=1;fillColor=#D6D6D6;" vertex="1" parent="1">
          <mxGeometry x="-3950" y="-5340" width="100" height="30" as="geometry" />
        </mxCell>
        <mxCell id="tmo_uA_r9gK2cHat2s6H-41" value="Kuota" style="rounded=0;whiteSpace=wrap;html=1;fillColor=#D6D6D6;" vertex="1" parent="1">
          <mxGeometry x="-3930" y="-5150" width="50" height="30" as="geometry" />
        </mxCell>
        <mxCell id="tmo_uA_r9gK2cHat2s6H-42" value="&lt;u&gt;ID_Jadwal&lt;/u&gt;" style="rounded=0;whiteSpace=wrap;html=1;fillColor=#D6D6D6;" vertex="1" parent="1">
          <mxGeometry x="-4130" y="-5050" width="70" height="30" as="geometry" />
        </mxCell>
        <mxCell id="tmo_uA_r9gK2cHat2s6H-43" value="Ruang" style="rounded=0;whiteSpace=wrap;html=1;fillColor=#D6D6D6;" vertex="1" parent="1">
          <mxGeometry x="-4010" y="-5050" width="60" height="30" as="geometry" />
        </mxCell>
        <mxCell id="tmo_uA_r9gK2cHat2s6H-44" value="Hari" style="rounded=0;whiteSpace=wrap;html=1;fillColor=#D6D6D6;" vertex="1" parent="1">
          <mxGeometry x="-4060" y="-5050" width="50" height="30" as="geometry" />
        </mxCell>
        <mxCell id="tmo_uA_r9gK2cHat2s6H-45" value="JADWAL" style="text;html=1;align=center;verticalAlign=middle;resizable=0;points=[];autosize=1;strokeColor=none;fillColor=none;" vertex="1" parent="1">
          <mxGeometry x="-4130" y="-5080" width="70" height="30" as="geometry" />
        </mxCell>
        <mxCell id="tmo_uA_r9gK2cHat2s6H-46" value="Waktu" style="rounded=0;whiteSpace=wrap;html=1;fillColor=#D6D6D6;" vertex="1" parent="1">
          <mxGeometry x="-3950" y="-5050" width="50" height="30" as="geometry" />
        </mxCell>
        <mxCell id="tmo_uA_r9gK2cHat2s6H-57" style="edgeStyle=orthogonalEdgeStyle;rounded=0;orthogonalLoop=1;jettySize=auto;html=1;entryX=0.5;entryY=1;entryDx=0;entryDy=0;" edge="1" parent="1" source="tmo_uA_r9gK2cHat2s6H-53" target="tmo_uA_r9gK2cHat2s6H-28">
          <mxGeometry relative="1" as="geometry">
            <Array as="points">
              <mxPoint x="-4095" y="-4810" />
              <mxPoint x="-4190" y="-4810" />
              <mxPoint x="-4190" y="-5190" />
              <mxPoint x="-4040" y="-5190" />
            </Array>
          </mxGeometry>
        </mxCell>
        <mxCell id="tmo_uA_r9gK2cHat2s6H-53" value="ID_FRS" style="rounded=0;whiteSpace=wrap;html=1;fillColor=#D6D6D6;" vertex="1" parent="1">
          <mxGeometry x="-4130" y="-4850" width="70" height="30" as="geometry" />
        </mxCell>
        <mxCell id="tmo_uA_r9gK2cHat2s6H-58" style="edgeStyle=orthogonalEdgeStyle;rounded=0;orthogonalLoop=1;jettySize=auto;html=1;entryX=0.5;entryY=1;entryDx=0;entryDy=0;" edge="1" parent="1" source="tmo_uA_r9gK2cHat2s6H-54" target="tmo_uA_r9gK2cHat2s6H-35">
          <mxGeometry relative="1" as="geometry">
            <Array as="points">
              <mxPoint x="-4020" y="-4810" />
              <mxPoint x="-3880" y="-4810" />
              <mxPoint x="-3880" y="-5100" />
              <mxPoint x="-4095" y="-5100" />
            </Array>
          </mxGeometry>
        </mxCell>
        <mxCell id="tmo_uA_r9gK2cHat2s6H-54" value="ID_Matkul" style="rounded=0;whiteSpace=wrap;html=1;fillColor=#D6D6D6;" vertex="1" parent="1">
          <mxGeometry x="-4060" y="-4850" width="80" height="30" as="geometry" />
        </mxCell>
        <mxCell id="tmo_uA_r9gK2cHat2s6H-56" value="DETAIL_FRS" style="text;html=1;align=center;verticalAlign=middle;resizable=0;points=[];autosize=1;strokeColor=none;fillColor=none;" vertex="1" parent="1">
          <mxGeometry x="-4135" y="-4880" width="100" height="30" as="geometry" />
        </mxCell>
      </root>
    </mxGraphModel>
  </diagram>
</mxfile>
